<svg width="37" height="30" viewBox="0 0 37 30" fill="none" xmlns="http://www.w3.org/2000/svg">
<path d="M35.8556 11.8746L35.8072 11.7626L30.9178 0.702715C30.8188 0.485551 30.6426 0.30133 30.415 0.17672C30.245 0.0823945 30.052 0.023901 29.8513 0.00592717C29.6507 -0.0120481 29.448 0.0109971 29.2593 0.0732145C29.0709 0.135434 28.9016 0.235093 28.7655 0.364208C28.6295 0.493321 28.5301 0.648297 28.4754 0.816714L25.1751 9.57863H11.81L8.50965 0.816714C8.4546 0.648549 8.35501 0.493865 8.2188 0.364998C8.08259 0.236131 7.91354 0.136648 7.72511 0.0744805C7.53671 0.0123131 7.33417 -0.0108175 7.13362 0.00693317C6.93308 0.024685 6.74009 0.0828245 6.57005 0.17672C6.34234 0.30133 6.16623 0.485551 6.06727 0.702715L1.18021 11.7646L1.12947 11.8746C0.425873 13.4692 0.339193 15.2189 0.882495 16.86C1.4258 18.501 2.56963 19.9445 4.14152 20.9725L4.15997 20.9845L4.20146 21.0125L11.6393 25.8464L15.3294 28.2644L17.5711 29.7344C17.8342 29.9068 18.1548 30 18.4844 30C18.8141 30 19.1347 29.9068 19.3977 29.7344L21.6395 28.2644L25.3296 25.8464L32.8205 20.9845L32.8412 20.9705C34.413 19.9429 35.5569 18.4999 36.1008 16.8592C36.6444 15.2186 36.5583 13.4692 35.8556 11.8746Z" fill="#E24329"/>
</svg>
